<?xml version="1.0" standalone="no"?>
<!DOCTYPE svg PUBLIC "-//W3C//DTD SVG 20010904//EN"
 "http://www.w3.org/TR/2001/REC-SVG-20010904/DTD/svg10.dtd">
<svg version="1.0" xmlns="http://www.w3.org/2000/svg"
  width="52px" height="52px" viewBox="0 0 74.000000 75.000000"
 preserveAspectRatio="xMidYMid meet">

<g transform="translate(0.000000,75.000000) scale(0.100000,-0.100000)"
fill="#efefef" stroke="none">
<path d="M307 668 c-48 -13 -71 -45 -58 -80 11 -29 23 -35 89 -44 95 -12 162
26 142 81 -14 40 -104 62 -173 43z m129 -52 c29 -22 12 -29 -66 -29 -78 0 -95
7 -66 29 25 18 107 18 132 0z"/>
<path d="M143 568 c-66 -70 -83 -160 -35 -184 l23 -11 -27 -18 c-24 -15 -26
-22 -21 -61 6 -54 46 -118 88 -139 28 -15 33 -15 54 -1 31 20 39 50 23 80 -7
13 -23 42 -35 64 -12 22 -34 49 -48 60 -22 17 -23 20 -7 24 23 6 92 124 92
158 0 31 -27 60 -56 60 -11 0 -34 -15 -51 -32z m72 -17 c3 -5 -8 -31 -25 -57
-16 -26 -30 -54 -30 -61 0 -7 -9 -13 -20 -13 -11 0 -20 7 -20 15 0 33 60 125
81 125 4 0 10 -4 14 -9z m-55 -245 c0 -7 14 -34 31 -60 21 -34 27 -52 20 -59
-23 -23 -102 91 -88 127 7 18 37 11 37 -8z"/>
<path d="M513 589 c-40 -15 -39 -52 4 -126 21 -37 49 -73 62 -79 22 -11 22
-12 4 -18 -22 -7 -103 -136 -103 -163 1 -41 46 -69 84 -52 41 19 96 111 96
160 0 11 -11 31 -26 44 -24 22 -24 24 -5 30 42 13 38 74 -8 148 -31 48 -72 69
-108 56z m59 -58 c31 -36 52 -86 45 -106 -7 -17 -37 -9 -37 9 0 7 -14 34 -30
60 -42 65 -25 93 22 37z m48 -227 c0 -45 -71 -137 -91 -117 -7 7 -1 25 20 59
17 26 31 53 31 60 0 13 20 24 33 17 4 -2 7 -11 7 -19z"/>
<path d="M310 193 c-54 -10 -78 -63 -45 -97 32 -32 171 -34 202 -3 23 23 19
68 -7 89 -22 18 -86 22 -150 11z m138 -47 c14 -15 -33 -36 -78 -36 -46 0 -88
19 -77 36 6 11 144 10 155 0z"/>
</g>
</svg>
