<?xml version="1.0" encoding="UTF-8"?>
<!DOCTYPE svg PUBLIC "-//W3C//DTD SVG 1.1//EN" "http://www.w3.org/Graphics/SVG/1.1/DTD/svg11.dtd">
<svg xmlns="http://www.w3.org/2000/svg" version="1.1" width="48px" height="48px" style="shape-rendering:geometricPrecision; text-rendering:geometricPrecision; image-rendering:optimizeQuality; fill-rule:evenodd; clip-rule:evenodd" xmlns:xlink="http://www.w3.org/1999/xlink">
<g><path style="opacity:0.869" fill="#f9fafb" d="M 14.5,5.5 C 20.1764,5.33391 25.8431,5.50058 31.5,6C 32.4438,8.71914 32.7771,11.5525 32.5,14.5C 35.0444,14.1043 37.2111,14.771 39,16.5C 39.6667,23.1667 39.6667,29.8333 39,36.5C 38.5,37 38,37.5 37.5,38C 28.1667,38.6667 18.8333,38.6667 9.5,38C 9,37.5 8.5,37 8,36.5C 7.33333,28.1667 7.33333,19.8333 8,11.5C 10.8316,10.1735 12.9983,8.17353 14.5,5.5 Z M 17.5,8.5 C 19.5,8.5 21.5,8.5 23.5,8.5C 23.5,10.5 23.5,12.5 23.5,14.5C 21.1667,14.5 18.8333,14.5 16.5,14.5C 16.3253,12.3792 16.6586,10.3792 17.5,8.5 Z M 26.5,8.5 C 28.9754,9.6874 29.9754,11.6874 29.5,14.5C 28.5,14.5 27.5,14.5 26.5,14.5C 26.5,12.5 26.5,10.5 26.5,8.5 Z M 11.5,17.5 C 19.1739,17.3336 26.8406,17.5003 34.5,18C 35.6389,23.4162 35.8056,28.9162 35,34.5C 27.5799,35.6466 20.0799,35.8132 12.5,35C 11.5251,29.2588 11.1918,23.4254 11.5,17.5 Z"/></g>
<g><path style="opacity:0.596" fill="#f9fafb" d="M 29.5,23.5 C 33.35,23.7007 34.35,25.5341 32.5,29C 28.5369,29.1177 27.5369,27.2843 29.5,23.5 Z"/></g>
</svg>
