<?xml version="1.0" encoding="UTF-8"?>
<!DOCTYPE svg PUBLIC "-//W3C//DTD SVG 1.1//EN" "http://www.w3.org/Graphics/SVG/1.1/DTD/svg11.dtd">
<svg xmlns="http://www.w3.org/2000/svg" version="1.1" width="36px" height="39px" style="shape-rendering:geometricPrecision; text-rendering:geometricPrecision; image-rendering:optimizeQuality; fill-rule:evenodd; clip-rule:evenodd" xmlns:xlink="http://www.w3.org/1999/xlink">
<g><path style="opacity:0.942" fill="#f9fafb" d="M 35.5,15.5 C 35.5,22.8333 35.5,30.1667 35.5,37.5C 34.8333,37.5 34.5,37.8333 34.5,38.5C 30.1667,38.5 25.8333,38.5 21.5,38.5C 20.5701,34.6002 20.2367,30.6002 20.5,26.5C 18.5,26.5 16.5,26.5 14.5,26.5C 14.7633,30.6002 14.4299,34.6002 13.5,38.5C 9.16667,38.5 4.83333,38.5 0.5,38.5C 0.5,37.8333 0.166667,37.5 -0.5,37.5C -0.5,30.1667 -0.5,22.8333 -0.5,15.5C 5.50705,10.4916 11.5071,5.49156 17.5,0.5C 23.4929,5.49156 29.4929,10.4916 35.5,15.5 Z M 16.5,5.5 C 22.3591,8.84635 27.5257,13.1797 32,18.5C 32.4994,24.1569 32.6661,29.8236 32.5,35.5C 29.5,35.5 26.5,35.5 23.5,35.5C 23.6653,31.8183 23.4986,28.1516 23,24.5C 19.3333,23.1667 15.6667,23.1667 12,24.5C 11.5014,28.1516 11.3347,31.8183 11.5,35.5C 8.5,35.5 5.5,35.5 2.5,35.5C 2.33391,29.8236 2.50058,24.1569 3,18.5C 7.39537,13.9357 11.8954,9.60235 16.5,5.5 Z"/></g>
</svg>
