<?xml version="1.0" encoding="UTF-8"?>
<!DOCTYPE svg PUBLIC "-//W3C//DTD SVG 1.1//EN" "http://www.w3.org/Graphics/SVG/1.1/DTD/svg11.dtd">
<svg xmlns="http://www.w3.org/2000/svg" version="1.1" width="52px" height="47px" style="shape-rendering:geometricPrecision; text-rendering:geometricPrecision; image-rendering:optimizeQuality; fill-rule:evenodd; clip-rule:evenodd" xmlns:xlink="http://www.w3.org/1999/xlink">
<g><path style="opacity:0.958" fill="#efefef" d="M 51.5,8.5 C 51.5,20.1667 51.5,31.8333 51.5,43.5C 50.5987,44.2905 49.9321,45.2905 49.5,46.5C 33.8333,46.5 18.1667,46.5 2.5,46.5C 1.70951,45.5987 0.709515,44.9321 -0.5,44.5C -0.5,32.8333 -0.5,21.1667 -0.5,9.5C 0.267389,8.82803 0.934056,7.9947 1.5,7C 5.21098,6.82528 8.87764,6.32528 12.5,5.5C 13.624,4.08601 14.624,2.58601 15.5,1C 22.1667,0.333333 28.8333,0.333333 35.5,1C 36.376,2.58601 37.376,4.08601 38.5,5.5C 43.0055,6.04231 47.3388,7.04231 51.5,8.5 Z M 18.5,4.5 C 23.2137,4.17338 27.8804,4.50671 32.5,5.5C 33.624,6.91399 34.624,8.41399 35.5,10C 38.8333,10.3333 42.1667,10.6667 45.5,11C 46,11.5 46.5,12 47,12.5C 47.6667,21.8333 47.6667,31.1667 47,40.5C 46.5,41 46,41.5 45.5,42C 32.1667,42.6667 18.8333,42.6667 5.5,42C 5,41.5 4.5,41 4,40.5C 3.33333,31.1667 3.33333,21.8333 4,12.5C 4.5,12 5,11.5 5.5,11C 8.83333,10.6667 12.1667,10.3333 15.5,10C 16.7577,8.25909 17.7577,6.42576 18.5,4.5 Z M 24.5,18.5 C 34.5336,22.5472 34.8669,27.2139 25.5,32.5C 16.6885,28.2667 16.3551,23.6 24.5,18.5 Z"/></g>
<g><path style="opacity:0.834" fill="#efefef" d="M 20.5,14.5 C 32.9901,12.8227 38.1568,18.156 36,30.5C 32.3637,36.1768 27.197,38.0101 20.5,36C 14.8232,32.3637 12.9899,27.197 15,20.5C 16.3597,17.9774 18.193,15.9774 20.5,14.5 Z M 24.5,18.5 C 16.3551,23.6 16.6885,28.2667 25.5,32.5C 34.8669,27.2139 34.5336,22.5472 24.5,18.5 Z"/></g>
</svg>
