<?xml version="1.0" encoding="UTF-8"?>
<!DOCTYPE svg PUBLIC "-//W3C//DTD SVG 1.1//EN" "http://www.w3.org/Graphics/SVG/1.1/DTD/svg11.dtd">
<svg xmlns="http://www.w3.org/2000/svg" version="1.1" width="64px" height="65px" style="shape-rendering:geometricPrecision; text-rendering:geometricPrecision; image-rendering:optimizeQuality; fill-rule:evenodd; clip-rule:evenodd" xmlns:xlink="http://www.w3.org/1999/xlink">
<g><path style="opacity:0.873" fill="#efefef" d="M 25.5,6.5 C 40.9828,4.14913 51.4828,10.1491 57,24.5C 59.8422,39.9936 54.0089,50.4936 39.5,56C 29.1667,56.6667 18.8333,56.6667 8.5,56C 7.84485,50.7458 7.51152,45.4125 7.5,40C 4.81931,23.8454 10.8193,12.6788 25.5,6.5 Z M 31.5,10.5 C 49.234,13.3737 55.734,23.3737 51,40.5C 48.031,45.4725 43.8643,48.9725 38.5,51C 29.5586,52.3459 20.5586,52.8459 11.5,52.5C 10.9147,42.3526 11.748,32.3526 14,22.5C 17.8751,15.4302 23.7085,11.4302 31.5,10.5 Z"/></g>
</svg>
